<?xml version="1.0" standalone="no"?>
<!DOCTYPE svg PUBLIC "-//W3C//DTD SVG 1.0//EN" "http://www.w3.org/TR/2001/REC-SVG-20010904/DTD/svg10.dtd">
<svg xmlns="http://www.w3.org/2000/svg" xmlns:xlink="http://www.w3.org/1999/xlink" id="body_1" width="222" height="57">

<g transform="matrix(0.0701095 0 0 0.0701095 -0 0.17447571)">
	<g transform="matrix(8.323769 0 0 8.323769 83.237686 83.237686)">
		<g transform="matrix(0.68421775 0 0 0.68421775 8.63088 16.889282)">
            <path d="M94.168 11.854L50.287 11.854L48.792 11.854L4.911 11.854C 3.3479998 11.854 2.0009997 13.043 2.0009997 14.606L2.0009997 14.606L2.0009997 68.7L2.0009997 68.888L2.0009997 73.9L2.0009997 74.213005C 2.0009997 75.77601 3.3479996 77.090004 4.911 77.090004L4.911 77.090004L40.057 77.090004C 40.016 77.98601 39.736 81.846 37.902 83.713005C 36.457 85.188 34.449 86.567 35.233 87.27601C 35.423 87.712006 36.324 87.96401 38.373 87.96401C 42.894 87.96401 47.789 87.96401 49.581 87.96401C 50.034 87.96401 50.288002 87.96401 50.288002 87.96401C 52.08 87.96401 56.976 87.96401 61.496002 87.96401C 63.83 87.96401 64.646 87.58101 64.654 87.01201L64.654 87.01201L64.574 87.01201L64.574 86.823006L64.49 86.823006C 64.384995 86.05301 62.828 84.91601 61.649998 83.717C 59.815998 81.849 59.537 77.992004 59.496 77.095L59.496 77.095L94.17 77.095C 95.734 77.095 97 75.781 97 74.217L97 74.217L97 73.904L97 68.892L97 68.703995L97 14.607C 97 13.042 95.73 11.854 94.168 11.854zM49.5 74.35C 48.479 74.35 47.653 73.526 47.653 72.504C 47.653 71.484 48.479 70.658 49.5 70.658C 50.52 70.658 51.346 71.48399 51.346 72.504C 51.348 73.525 50.52 74.35 49.5 74.35zM92.994 64.695L6.007 64.695L6.007 15.67L92.994 15.67L92.994 64.695z" stroke="none" fill="#000000" fill-rule="nonzero" />
			<g>
				<g>
                    <path d="M19.778 33.744L23.068 33.744L23.068 39.781998L23.111 39.781998C 23.458 39.326996 23.891 38.981 24.41 38.699997C 24.886 38.44 25.513 38.288 26.119 38.288C 28.219 38.288 29.82 39.738 29.82 42.92L29.82 42.92L29.82 49.108997L26.529999 49.108997L26.529999 43.287C 26.529999 41.902 26.053999 40.948997 24.821 40.948997C 23.955 40.948997 23.414 41.511997 23.175999 42.095997C 23.088999 42.312996 23.067 42.594997 23.067 42.831997L23.067 42.831997L23.067 49.107998L19.777 49.107998L19.778 33.744z" stroke="none" fill="#000000" fill-rule="nonzero" />
                    <path d="M36.007 35.497L36.007 38.527L38.366 38.527L38.366 40.951L36.007 40.951L36.007 44.782C 36.007 46.059002 36.31 46.643 37.306 46.643C 37.717 46.643 38.041 46.600002 38.28 46.557003L38.28 46.557003L38.301 49.046C 37.868 49.219 37.088997 49.328003 36.157997 49.328003C 35.096996 49.328003 34.21 48.960003 33.690998 48.419003C 33.085 47.792004 32.781998 46.774002 32.781998 45.281002L32.781998 45.281002L32.781998 40.95L31.374998 40.95L31.374998 38.526L32.781998 38.526L32.781998 36.232002L36.007 35.497z" stroke="none" fill="#000000" fill-rule="nonzero" />
                    <path d="M43.948 35.497L43.948 38.527L46.307003 38.527L46.307003 40.951L43.948 40.951L43.948 44.782C 43.948 46.059002 44.251003 46.643 45.247 46.643C 45.658 46.643 45.982002 46.600002 46.221 46.557003L46.221 46.557003L46.243 49.046C 45.81 49.219 45.031 49.328003 44.1 49.328003C 43.038998 49.328003 42.153 48.960003 41.633 48.419003C 41.027 47.792004 40.724 46.774002 40.724 45.281002L40.724 45.281002L40.724 40.95L39.316998 40.95L39.316998 38.526L40.724 38.526L40.724 36.232002L43.948 35.497z" stroke="none" fill="#000000" fill-rule="nonzero" />
                    <path d="M48.209 42.076C 48.209 40.691 48.166 39.5 48.123 38.526L48.123 38.526L50.978 38.526L51.129 39.998L51.172 39.998C 51.951 38.872 53.164 38.288002 54.7 38.288002C 57.014 38.288002 59.095 40.301003 59.095 43.677002C 59.095 47.530003 56.65 49.348003 54.289 49.348003C 53.013 49.348003 52.017002 48.829002 51.54 48.136L51.54 48.136L51.496002 48.136L51.496002 53.394L48.207 53.394L48.209 42.076zM51.498 44.565C 51.498 44.824997 51.519 45.063 51.564003 45.257C 51.779003 46.145 52.537003 46.815 53.49 46.815C 54.918003 46.815 55.761 45.625 55.761 43.828C 55.761 42.14 55.002003 40.864 53.532 40.864C 52.599003 40.864 51.777 41.556 51.562 42.53C 51.517002 42.703 51.497 42.92 51.497 43.114998L51.497 43.114998L51.498 44.565z" stroke="none" fill="#000000" fill-rule="nonzero" />
                    <path d="M60.91 40.388C 60.91 39.219 61.71 38.397 62.857 38.397C 64.003 38.397 64.761 39.197998 64.783 40.388C 64.783 41.513 64.004 42.358 62.836 42.358C 61.71 42.357 60.91 41.513 60.91 40.388zM60.91 47.378C 60.91 46.231 61.71 45.386997 62.857 45.386997C 64.003 45.386997 64.761 46.208996 64.783 47.378C 64.783 48.503998 64.004 49.348 62.836 49.348C 61.71 49.348 60.91 48.504 60.91 47.378z" stroke="none" fill="#000000" fill-rule="nonzero" />
                    <path d="M65.799 49.976L70.43 34.285004L72.618004 34.285004L67.984 49.976006L65.799 49.976006L65.799 49.976z" stroke="none" fill="#000000" fill-rule="nonzero" />
                    <path d="M72.961 49.976L77.591995 34.285004L79.78 34.285004L75.146996 49.976006L72.961 49.976006L72.961 49.976z" stroke="none" fill="#000000" fill-rule="nonzero" />
				</g>
			</g>
		</g>
		<g transform="matrix(2.1816676 0 0 2.1816676 84.0837 17.695395)">
            <path d="M3.2 20L3.2 19.7L4.92 19.7L4.92 7.080001L2.48 7.080001C 1.46 7.080001 1.04 7.620001 0.88 9.080001L0.88 9.080001L0.72 10.52L0.42000002 10.52C 0.42000002 10.52 0.54 8.72 0.54 8.040001L0.54 8.040001L0.54 6.7800007L11.76 6.7800007L11.76 8.040001C 11.76 8.720001 11.84 10.52 11.84 10.52L11.84 10.52L11.54 10.52L11.4 9.040001C 11.28 7.680001 10.9 7.080001 9.86 7.080001L9.86 7.080001L7.3599997 7.080001L7.3599997 19.7L9.099999 19.7L9.099999 20L3.1999993 20L3.2 20zM12.54 20L12.54 19.7L13.86 19.7L13.86 5.9400005L12.5199995 5.9400005L12.5199995 5.6400003L16.099998 5.6400003L16.099998 13.040001L16.14 13.040001C 16.34 12.52 17.06 10.860001 19.38 10.860001C 21.199999 10.860001 22.199999 11.64 22.199999 13.6L22.199999 13.6L22.199999 19.7L23.539999 19.7L23.539999 20L18.779999 20L18.779999 19.7L19.96 19.7L19.96 13.120001C 19.96 11.840001 19.64 11.340001 18.72 11.340001C 16.82 11.340001 16.099998 13.560001 16.099998 14.600001L16.099998 14.600001L16.099998 19.7L17.3 19.7L17.3 20L12.539999 20zM26.84 15.26L26.84 15.56C 26.84 19.1 27.68 19.82 29.14 19.82C 30.619999 19.82 32 18.88 32 17.38L32 17.38L32.3 17.38C 32.28 18.58 31.58 19.4 30.56 19.84C 30.039999 20.06 29.539999 20.14 28.92 20.14C 26.3 20.14 24.48 18.88 24.48 15.5C 24.48 12.2 26.22 10.860001 28.76 10.860001C 31.12 10.860001 32.5 12.040001 32.5 14.460001L32.5 14.460001L32.5 15.260001L26.84 15.260001zM26.86 14.96L30.28 14.96L30.28 14.02C 30.28 12.14 29.92 11.120001 28.720001 11.120001C 27.420002 11.120001 26.920002 12.18 26.86 14.960001zM38.5 20.14C 35.48 20.14 34 18.359999 34 15.559999C 34 12.679999 35.4 10.86 38.5 10.86C 41.64 10.86 43 12.599999 43 15.44C 43 18.46 41.3 20.14 38.5 20.14zM38.5 19.88C 40.16 19.88 40.64 18.619999 40.64 15.439999C 40.64 12.319999 40.16 11.119999 38.5 11.119999C 36.9 11.119999 36.36 12.359999 36.36 15.559999C 36.36 18.66 36.88 19.88 38.5 19.88zM48.84 20L48.84 19.7L50.56 19.7L50.56 7.080001L48.84 7.080001L48.84 6.7800007L54.82 6.7800007C 59.66 6.7800007 61.68 9.300001 61.68 13.18C 61.68 16.960001 59.8 20 54.82 20L54.82 20L48.84 20zM53 19.7L54.86 19.7C 57.7 19.7 59.06 17.52 59.06 13.400001C 59.06 9.1 57.7 7.0800004 54.86 7.0800004L54.86 7.0800004L53 7.0800004L53 19.7zM65.74 15.26L65.74 15.56C 65.74 19.1 66.579994 19.82 68.04 19.82C 69.520004 19.82 70.9 18.88 70.9 17.38L70.9 17.38L71.200005 17.38C 71.18001 18.58 70.48 19.4 69.46001 19.84C 68.94001 20.06 68.44001 20.14 67.82001 20.14C 65.200005 20.14 63.38001 18.88 63.38001 15.5C 63.38001 12.2 65.12001 10.860001 67.66001 10.860001C 70.02001 10.860001 71.40001 12.040001 71.40001 14.460001L71.40001 14.460001L71.40001 15.260001L65.740005 15.260001zM65.76 14.96L69.18 14.96L69.18 14.02C 69.18 12.14 68.82 11.120001 67.62 11.120001C 66.32 11.120001 65.82 12.18 65.76 14.960001zM76.94 20.06L73.100006 11.299999L72.020004 11.299999L72.020004 10.999999L76.76 10.999999L76.76 11.299999L75.46 11.299999L78.159996 17.519999L80.159996 12.499998C 80.479996 11.699998 80.24 11.299998 79.35999 11.299998L79.35999 11.299998L78.95999 11.299998L78.95999 10.999998L82.13999 10.999998L82.13999 11.299998L81.939995 11.299998C 81.31999 11.299998 80.81999 11.659998 80.6 12.219998L80.6 12.219998L77.479996 20.059998L76.939995 20.059998zM85.22 15.26L85.22 15.56C 85.22 19.1 86.06 19.82 87.520004 19.82C 89.00001 19.82 90.380005 18.88 90.380005 17.38L90.380005 17.38L90.68001 17.38C 90.66001 18.58 89.96001 19.4 88.94001 19.84C 88.42001 20.06 87.92001 20.14 87.30001 20.14C 84.68001 20.14 82.86001 18.88 82.86001 15.5C 82.86001 12.2 84.600006 10.860001 87.14001 10.860001C 89.50001 10.860001 90.880005 12.040001 90.880005 14.460001L90.880005 14.460001L90.880005 15.260001L85.22 15.260001zM85.24 14.96L88.659996 14.96L88.659996 14.02C 88.659996 12.14 88.299995 11.120001 87.1 11.120001C 85.799995 11.120001 85.299995 12.18 85.24 14.960001zM91.92 20L91.92 19.7L93.259995 19.7L93.259995 5.9400005L91.92 5.9400005L91.92 5.6400003L95.5 5.6400003L95.5 19.7L96.82 19.7L96.82 20L91.92 20zM102.38 20.14C 99.36 20.14 97.88 18.359999 97.88 15.559999C 97.88 12.679999 99.28 10.86 102.38 10.86C 105.52 10.86 106.88 12.599999 106.88 15.44C 106.88 18.46 105.18 20.14 102.38 20.14zM102.38 19.88C 104.04 19.88 104.52 18.619999 104.52 15.439999C 104.52 12.319999 104.03999 11.119999 102.38 11.119999C 100.78 11.119999 100.24 12.359999 100.24 15.559999C 100.24 18.66 100.759995 19.88 102.38 19.88zM111.48 14.42L111.48 17.04C 111.48 18.36 112.200005 19.740002 113.68 19.740002C 115.14 19.740002 115.74 18.380001 115.74 15.320002C 115.74 12.360002 115.18 11.280002 113.86 11.280002C 112.44 11.280002 111.48 12.800001 111.48 14.420002zM107.9 24.56L107.9 24.26L109.24 24.26L109.24 11.3L107.9 11.3L107.9 11L111.44 11L111.44 12.86L111.48 12.86C 111.920006 11.719999 112.78001 10.86 114.4 10.86C 116.92 10.86 118.08 12.58 118.08 15.36C 118.08 18.38 116.560005 20.14 114.1 20.14C 112.64 20.14 111.88 19.38 111.52 18.599998L111.52 18.599998L111.479996 18.599998L111.479996 24.259998L112.81999 24.259998L112.81999 24.559998L107.899994 24.559998zM119.96 20.14L119.7 20.14C 119.899994 19.64 119.899994 18.519999 119.899994 17.88L119.899994 17.88L119.899994 16.8L120.2 16.8L120.2 17.119999C 120.2 18.699999 121.32 19.839998 123.28 19.839998C 124.54 19.839998 125.659996 19.38 125.659996 18.279999C 125.659996 16.079998 119.81999 17.519999 119.81999 13.599998C 119.81999 11.5599985 121.53999 10.859999 123.09999 10.859999C 124.079994 10.859999 124.87999 11.159999 125.41999 11.619999C 125.899994 11.539999 126.11999 11.219999 126.25999 10.859999L126.25999 10.859999L126.51999 10.859999C 126.27999 11.359999 126.23999 12.079999 126.23999 12.719998L126.23999 12.719998L126.23999 13.739998L125.93999 13.739998L125.93999 13.419998C 125.93999 12.419998 125.139984 11.159998 123.07999 11.159998C 121.83999 11.159998 120.77998 11.619998 120.77998 12.679998C 120.77998 14.919998 126.65998 13.479999 126.65998 17.239998C 126.65998 18.899998 125.41998 20.139997 123.27998 20.139997C 122.179985 20.139997 121.33998 19.819998 120.75999 19.279997C 120.33999 19.379997 120.09998 19.759996 119.959984 20.139997z" stroke="none" fill="#000000" fill-rule="nonzero" />
		</g>
	</g>
</g>
</svg>