
        <svg xmlns="http://www.w3.org/2000/svg" xmlns:xlink="http://www.w3.org/1999/xlink" version="1.1" width="3166.475367610509" 
        height="808.0366566878959" viewBox="0 0 3166.475367610509 808.0366566878959">
			<rect fill="#6eb6ff" width="3166.475367610509" height="808.0366566878959"/>
			<g transform="scale(8.323768380525454) translate(10, 10)">
				<defs id="SvgjsDefs1230"></defs><g id="SvgjsG1231" featureKey="Ez5wPW-0" transform="matrix(0.6842177246512908,0,0,0.6842177246512908,8.630880219434136,16.889283029341595)" fill="#111111"><path xmlns="http://www.w3.org/2000/svg" d="M94.168,11.854H50.287h-1.495H4.911c-1.563,0-2.91,1.189-2.91,2.752V68.7v0.188V73.9v0.313c0,1.563,1.347,2.877,2.91,2.877  h35.146c-0.041,0.896-0.321,4.756-2.155,6.623c-1.445,1.475-3.453,2.854-2.669,3.563c0.19,0.436,1.091,0.688,3.14,0.688  c4.521,0,9.416,0,11.208,0c0.453,0,0.707,0,0.707,0c1.792,0,6.688,0,11.208,0c2.334,0,3.15-0.383,3.158-0.952h-0.08v-0.189H64.49  c-0.105-0.77-1.662-1.907-2.84-3.106c-1.834-1.868-2.113-5.725-2.154-6.622H94.17c1.564,0,2.83-1.314,2.83-2.878v-0.313v-5.012  v-0.188V14.607C97,13.042,95.73,11.854,94.168,11.854z M49.5,74.35c-1.021,0-1.847-0.824-1.847-1.846  c0-1.02,0.826-1.846,1.847-1.846c1.02,0,1.846,0.826,1.846,1.846C51.348,73.525,50.52,74.35,49.5,74.35z M92.994,64.695H6.007V15.67  h86.987V64.695z"></path><g xmlns="http://www.w3.org/2000/svg"><g><path d="M19.778,33.744h3.29v6.038h0.043c0.347-0.455,0.78-0.801,1.299-1.082c0.476-0.26,1.103-0.412,1.709-0.412    c2.1,0,3.701,1.45,3.701,4.632v6.189h-3.29v-5.822c0-1.385-0.476-2.338-1.709-2.338c-0.866,0-1.407,0.563-1.645,1.147    c-0.087,0.217-0.109,0.499-0.109,0.736v6.276h-3.29L19.778,33.744L19.778,33.744z"></path><path d="M36.007,35.497v3.03h2.359v2.424h-2.359v3.831c0,1.277,0.303,1.861,1.299,1.861c0.411,0,0.735-0.043,0.974-0.086    l0.021,2.489c-0.433,0.173-1.212,0.282-2.143,0.282c-1.061,0-1.948-0.368-2.467-0.909c-0.606-0.627-0.909-1.645-0.909-3.138V40.95    h-1.407v-2.424h1.407v-2.294L36.007,35.497z"></path><path d="M43.948,35.497v3.03h2.359v2.424h-2.359v3.831c0,1.277,0.303,1.861,1.299,1.861c0.411,0,0.735-0.043,0.974-0.086    l0.022,2.489c-0.433,0.173-1.212,0.282-2.143,0.282c-1.061,0-1.947-0.368-2.467-0.909c-0.606-0.627-0.909-1.645-0.909-3.138V40.95    h-1.407v-2.424h1.407v-2.294L43.948,35.497z"></path><path d="M48.209,42.076c0-1.385-0.043-2.576-0.086-3.55h2.855l0.151,1.472h0.043c0.779-1.126,1.992-1.71,3.528-1.71    c2.314,0,4.395,2.013,4.395,5.389c0,3.853-2.445,5.671-4.806,5.671c-1.276,0-2.272-0.519-2.749-1.212h-0.044v5.258h-3.289    L48.209,42.076L48.209,42.076z M51.498,44.565c0,0.26,0.021,0.498,0.066,0.692c0.215,0.888,0.973,1.558,1.926,1.558    c1.428,0,2.271-1.19,2.271-2.987c0-1.688-0.759-2.964-2.229-2.964c-0.933,0-1.755,0.692-1.97,1.666    c-0.045,0.173-0.065,0.39-0.065,0.585L51.498,44.565L51.498,44.565z"></path><path d="M60.91,40.388c0-1.169,0.8-1.991,1.947-1.991c1.146,0,1.904,0.801,1.926,1.991c0,1.125-0.779,1.97-1.947,1.97    C61.71,42.357,60.91,41.513,60.91,40.388z M60.91,47.378c0-1.147,0.8-1.991,1.947-1.991c1.146,0,1.904,0.822,1.926,1.991    c0,1.126-0.779,1.97-1.947,1.97C61.71,49.348,60.91,48.504,60.91,47.378z"></path><path d="M65.799,49.976l4.631-15.691h2.188l-4.634,15.691H65.799z"></path><path d="M72.961,49.976l4.631-15.691h2.188l-4.633,15.691H72.961z"></path></g></g></g><g id="SvgjsG1232" featureKey="ujU5uU-0" transform="matrix(2.1816676071919328,0,0,2.1816676071919328,84.08369956856887,17.69539394642137)" fill="#111111"><path d="M3.2 20 l0 -0.3 l1.72 0 l0 -12.62 l-2.44 0 c-1.02 0 -1.44 0.54 -1.6 2 l-0.16 1.44 l-0.3 0 s0.12 -1.8 0.12 -2.48 l0 -1.26 l11.22 0 l0 1.26 c0 0.68 0.08 2.48 0.08 2.48 l-0.3 0 l-0.14 -1.48 c-0.12 -1.36 -0.5 -1.96 -1.54 -1.96 l-2.5 0 l0 12.62 l1.74 0 l0 0.3 l-5.9 0 z M12.540000000000001 20 l0 -0.3 l1.32 0 l0 -13.76 l-1.34 0 l0 -0.3 l3.58 0 l0 7.4 l0.04 0 c0.2 -0.52 0.92 -2.18 3.24 -2.18 c1.82 0 2.82 0.78 2.82 2.74 l0 6.1 l1.34 0 l0 0.3 l-4.76 0 l0 -0.3 l1.18 0 l0 -6.58 c0 -1.28 -0.32 -1.78 -1.24 -1.78 c-1.9 0 -2.62 2.22 -2.62 3.26 l0 5.1 l1.2 0 l0 0.3 l-4.76 0 z M26.84 15.26 l0 0.3 c0 3.54 0.84 4.26 2.3 4.26 c1.48 0 2.86 -0.94 2.86 -2.44 l0.3 0 c-0.02 1.2 -0.72 2.02 -1.74 2.46 c-0.52 0.22 -1.02 0.3 -1.64 0.3 c-2.62 0 -4.44 -1.26 -4.44 -4.64 c0 -3.3 1.74 -4.64 4.28 -4.64 c2.36 0 3.74 1.18 3.74 3.6 l0 0.8 l-5.66 0 z M26.86 14.96 l3.42 0 l0 -0.94 c0 -1.88 -0.36 -2.9 -1.56 -2.9 c-1.3 0 -1.8 1.06 -1.86 3.84 z M38.49999999999999 20.14 c-3.02 0 -4.5 -1.78 -4.5 -4.58 c0 -2.88 1.4 -4.7 4.5 -4.7 c3.14 0 4.5 1.74 4.5 4.58 c0 3.02 -1.7 4.7 -4.5 4.7 z M38.49999999999999 19.88 c1.66 0 2.14 -1.26 2.14 -4.44 c0 -3.12 -0.48 -4.32 -2.14 -4.32 c-1.6 0 -2.14 1.24 -2.14 4.44 c0 3.1 0.52 4.32 2.14 4.32 z M48.83999999999999 20 l0 -0.3 l1.72 0 l0 -12.62 l-1.72 0 l0 -0.3 l5.98 0 c4.84 0 6.86 2.52 6.86 6.4 c0 3.78 -1.88 6.82 -6.86 6.82 l-5.98 0 z M52.999999999999986 19.7 l1.86 0 c2.84 0 4.2 -2.18 4.2 -6.3 c0 -4.3 -1.36 -6.32 -4.2 -6.32 l-1.86 0 l0 12.62 z M65.74 15.26 l0 0.3 c0 3.54 0.84 4.26 2.3 4.26 c1.48 0 2.86 -0.94 2.86 -2.44 l0.3 0 c-0.02 1.2 -0.72 2.02 -1.74 2.46 c-0.52 0.22 -1.02 0.3 -1.64 0.3 c-2.62 0 -4.44 -1.26 -4.44 -4.64 c0 -3.3 1.74 -4.64 4.28 -4.64 c2.36 0 3.74 1.18 3.74 3.6 l0 0.8 l-5.66 0 z M65.75999999999999 14.96 l3.42 0 l0 -0.94 c0 -1.88 -0.36 -2.9 -1.56 -2.9 c-1.3 0 -1.8 1.06 -1.86 3.84 z M76.93999999999998 20.06 l-3.84 -8.76 l-1.08 0 l0 -0.3 l4.74 0 l0 0.3 l-1.3 0 l2.7 6.22 l2 -5.02 c0.32 -0.8 0.08 -1.2 -0.8 -1.2 l-0.4 0 l0 -0.3 l3.18 0 l0 0.3 l-0.2 0 c-0.62 0 -1.12 0.36 -1.34 0.92 l-3.12 7.84 l-0.54 0 z M85.22 15.26 l0 0.3 c0 3.54 0.84 4.26 2.3 4.26 c1.48 0 2.86 -0.94 2.86 -2.44 l0.3 0 c-0.02 1.2 -0.72 2.02 -1.74 2.46 c-0.52 0.22 -1.02 0.3 -1.64 0.3 c-2.62 0 -4.44 -1.26 -4.44 -4.64 c0 -3.3 1.74 -4.64 4.28 -4.64 c2.36 0 3.74 1.18 3.74 3.6 l0 0.8 l-5.66 0 z M85.24 14.96 l3.42 0 l0 -0.94 c0 -1.88 -0.36 -2.9 -1.56 -2.9 c-1.3 0 -1.8 1.06 -1.86 3.84 z M91.91999999999999 20 l0 -0.3 l1.34 0 l0 -13.76 l-1.34 0 l0 -0.3 l3.58 0 l0 14.06 l1.32 0 l0 0.3 l-4.9 0 z M102.38 20.14 c-3.02 0 -4.5 -1.78 -4.5 -4.58 c0 -2.88 1.4 -4.7 4.5 -4.7 c3.14 0 4.5 1.74 4.5 4.58 c0 3.02 -1.7 4.7 -4.5 4.7 z M102.38 19.88 c1.66 0 2.14 -1.26 2.14 -4.44 c0 -3.12 -0.48 -4.32 -2.14 -4.32 c-1.6 0 -2.14 1.24 -2.14 4.44 c0 3.1 0.52 4.32 2.14 4.32 z M111.47999999999999 14.42 l0 2.62 c0 1.32 0.72 2.7 2.2 2.7 c1.46 0 2.06 -1.36 2.06 -4.42 c0 -2.96 -0.56 -4.04 -1.88 -4.04 c-1.42 0 -2.38 1.52 -2.38 3.14 z M107.89999999999999 24.56 l0 -0.3 l1.34 0 l0 -12.96 l-1.34 0 l0 -0.3 l3.54 0 l0 1.86 l0.04 0 c0.44 -1.14 1.3 -2 2.92 -2 c2.52 0 3.68 1.72 3.68 4.5 c0 3.02 -1.52 4.78 -3.98 4.78 c-1.46 0 -2.22 -0.76 -2.58 -1.54 l-0.04 0 l0 5.66 l1.34 0 l0 0.3 l-4.92 0 z M119.95999999999998 20.14 l-0.26 0 c0.2 -0.5 0.2 -1.62 0.2 -2.26 l0 -1.08 l0.3 0 l0 0.32 c0 1.58 1.12 2.72 3.08 2.72 c1.26 0 2.38 -0.46 2.38 -1.56 c0 -2.2 -5.84 -0.76 -5.84 -4.68 c0 -2.04 1.72 -2.74 3.28 -2.74 c0.98 0 1.78 0.3 2.32 0.76 c0.48 -0.08 0.7 -0.4 0.84 -0.76 l0.26 0 c-0.24 0.5 -0.28 1.22 -0.28 1.86 l0 1.02 l-0.3 0 l0 -0.32 c0 -1 -0.8 -2.26 -2.86 -2.26 c-1.24 0 -2.3 0.46 -2.3 1.52 c0 2.24 5.88 0.8 5.88 4.56 c0 1.66 -1.24 2.9 -3.38 2.9 c-1.1 0 -1.94 -0.32 -2.52 -0.86 c-0.42 0.1 -0.66 0.48 -0.8 0.86 z"></path></g>
			</g>
		</svg>
	